{
    "asset" : {
        "generator" : "Khronos glTF Blender I/O v3.2.43",
        "version" : "2.0"
    },
    "scene" : 0,
    "scenes" : [
        {
            "name" : "Scene",
            "nodes" : [
                0
            ]
        }
    ],
    "nodes" : [
        {
            "mesh" : 0,
            "name" : "Cylinder"
        }
    ],
    "materials" : [
        {
            "doubleSided" : true,
            "name" : "Material.001",
            "pbrMetallicRoughness" : {
                "baseColorFactor" : [
                    0.035087402909994125,
                    0.19377006590366364,
                    0.37574970722198486,
                    1
                ],
                "metallicFactor" : 0,
                "roughnessFactor" : 0.5
            }
        },
        {
            "doubleSided" : true,
            "name" : "Material.002",
            "pbrMetallicRoughness" : {
                "baseColorFactor" : [
                    0.8000000715255737,
                    0.5237671136856079,
                    0.02044253796339035,
                    1
                ],
                "metallicFactor" : 0,
                "roughnessFactor" : 0.5
            }
        }
    ],
    "meshes" : [
        {
            "name" : "Cylinder",
            "primitives" : [
                {
                    "attributes" : {
                        "POSITION" : 0,
                        "NORMAL" : 1,
                        "TEXCOORD_0" : 2
                    },
                    "indices" : 3,
                    "material" : 0
                },
                {
                    "attributes" : {
                        "POSITION" : 4,
                        "NORMAL" : 5,
                        "TEXCOORD_0" : 6
                    },
                    "indices" : 7,
                    "material" : 1
                }
            ]
        }
    ],
    "accessors" : [
        {
            "bufferView" : 0,
            "componentType" : 5126,
            "count" : 8104,
            "max" : [
                0.28448981046676636,
                1,
                1
            ],
            "min" : [
                -0.28448981046676636,
                -1,
                -1
            ],
            "type" : "VEC3"
        },
        {
            "bufferView" : 1,
            "componentType" : 5126,
            "count" : 8104,
            "type" : "VEC3"
        },
        {
            "bufferView" : 2,
            "componentType" : 5126,
            "count" : 8104,
            "type" : "VEC2"
        },
        {
            "bufferView" : 3,
            "componentType" : 5123,
            "count" : 8424,
            "type" : "SCALAR"
        },
        {
            "bufferView" : 4,
            "componentType" : 5126,
            "count" : 744,
            "max" : [
                0.19325904548168182,
                0.6012738347053528,
                0.5990459322929382
            ],
            "min" : [
                -0.17829664051532745,
                -0.5986349582672119,
                -0.6016864776611328
            ],
            "type" : "VEC3"
        },
        {
            "bufferView" : 5,
            "componentType" : 5126,
            "count" : 744,
            "type" : "VEC3"
        },
        {
            "bufferView" : 6,
            "componentType" : 5126,
            "count" : 744,
            "type" : "VEC2"
        },
        {
            "bufferView" : 7,
            "componentType" : 5123,
            "count" : 1236,
            "type" : "SCALAR"
        }
    ],
    "bufferViews" : [
        {
            "buffer" : 0,
            "byteLength" : 97248,
            "byteOffset" : 0
        },
        {
            "buffer" : 0,
            "byteLength" : 97248,
            "byteOffset" : 97248
        },
        {
            "buffer" : 0,
            "byteLength" : 64832,
            "byteOffset" : 194496
        },
        {
            "buffer" : 0,
            "byteLength" : 16848,
            "byteOffset" : 259328
        },
        {
            "buffer" : 0,
            "byteLength" : 8928,
            "byteOffset" : 276176
        },
        {
            "buffer" : 0,
            "byteLength" : 8928,
            "byteOffset" : 285104
        },
        {
            "buffer" : 0,
            "byteLength" : 5952,
            "byteOffset" : 294032
        },
        {
            "buffer" : 0,
            "byteLength" : 2472,
            "byteOffset" : 299984
        }
    ],
    "buffers" : [
        {
            "byteLength" : 302456,
            "uri" : "data:application/octet-stream;base64,"
        }
    ]
}
