{
    "asset" : {
        "generator" : "Khronos glTF Blender I/O v3.2.43",
        "version" : "2.0"
    },
    "scene" : 0,
    "scenes" : [
        {
            "name" : "Scene",
            "nodes" : [
                0,
                1
            ]
        }
    ],
    "nodes" : [
        {
            "mesh" : 0,
            "name" : "Cylinder"
        },
        {
            "name" : "BezierCircle",
            "scale" : [
                5.804502010345459,
                5.804502010345459,
                5.804502010345459
            ]
        }
    ],
    "materials" : [
        {
            "doubleSided" : true,
            "name" : "Material.002",
            "pbrMetallicRoughness" : {
                "baseColorFactor" : [
                    0.8000000715255737,
                    0.4080754220485687,
                    0.031441327184438705,
                    1
                ],
                "metallicFactor" : 0.24468085169792175,
                "roughnessFactor" : 0.7659574747085571
            }
        },
        {
            "doubleSided" : true,
            "name" : "Material.003",
            "pbrMetallicRoughness" : {
                "baseColorFactor" : [
                    0.6151777505874634,
                    0.13388484716415405,
                    0.016778917983174324,
                    1
                ],
                "metallicFactor" : 0.7659574151039124,
                "roughnessFactor" : 0.2978723645210266
            }
        }
    ],
    "meshes" : [
        {
            "name" : "Cylinder",
            "primitives" : [
                {
                    "attributes" : {
                        "POSITION" : 0,
                        "NORMAL" : 1,
                        "TEXCOORD_0" : 2
                    },
                    "indices" : 3,
                    "material" : 0
                },
                {
                    "attributes" : {
                        "POSITION" : 4,
                        "NORMAL" : 5,
                        "TEXCOORD_0" : 6
                    },
                    "indices" : 7,
                    "material" : 1
                }
            ]
        }
    ],
    "accessors" : [
        {
            "bufferView" : 0,
            "componentType" : 5126,
            "count" : 3984,
            "max" : [
                1,
                1,
                0.15749679505825043
            ],
            "min" : [
                -1,
                -1,
                -0.15749679505825043
            ],
            "type" : "VEC3"
        },
        {
            "bufferView" : 1,
            "componentType" : 5126,
            "count" : 3984,
            "type" : "VEC3"
        },
        {
            "bufferView" : 2,
            "componentType" : 5126,
            "count" : 3984,
            "type" : "VEC2"
        },
        {
            "bufferView" : 3,
            "componentType" : 5123,
            "count" : 13800,
            "type" : "SCALAR"
        },
        {
            "bufferView" : 4,
            "componentType" : 5126,
            "count" : 5574,
            "max" : [
                0.2754310667514801,
                0.5215829014778137,
                0.2076028734445572
            ],
            "min" : [
                -0.31812524795532227,
                -0.4901005029678345,
                -0.23595553636550903
            ],
            "type" : "VEC3"
        },
        {
            "bufferView" : 5,
            "componentType" : 5126,
            "count" : 5574,
            "type" : "VEC3"
        },
        {
            "bufferView" : 6,
            "componentType" : 5126,
            "count" : 5574,
            "type" : "VEC2"
        },
        {
            "bufferView" : 7,
            "componentType" : 5123,
            "count" : 7326,
            "type" : "SCALAR"
        }
    ],
    "bufferViews" : [
        {
            "buffer" : 0,
            "byteLength" : 47808,
            "byteOffset" : 0
        },
        {
            "buffer" : 0,
            "byteLength" : 47808,
            "byteOffset" : 47808
        },
        {
            "buffer" : 0,
            "byteLength" : 31872,
            "byteOffset" : 95616
        },
        {
            "buffer" : 0,
            "byteLength" : 27600,
            "byteOffset" : 127488
        },
        {
            "buffer" : 0,
            "byteLength" : 66888,
            "byteOffset" : 155088
        },
        {
            "buffer" : 0,
            "byteLength" : 66888,
            "byteOffset" : 221976
        },
        {
            "buffer" : 0,
            "byteLength" : 44592,
            "byteOffset" : 288864
        },
        {
            "buffer" : 0,
            "byteLength" : 14652,
            "byteOffset" : 333456
        }
    ],
    "buffers" : [
        {
            "byteLength" : 348108,
            "uri" : "data:application/octet-stream;base64,"
        }
    ]
}
