{
    "asset" : {
        "generator" : "Khronos glTF Blender I/O v3.2.43",
        "version" : "2.0"
    },
    "scene" : 0,
    "scenes" : [
        {
            "name" : "Scene",
            "nodes" : [
                0
            ]
        }
    ],
    "nodes" : [
        {
            "mesh" : 0,
            "name" : "Cube",
            "rotation" : [
                0.5,
                0.5,
                -0.5,
                0.5
            ],
            "scale" : [
                0.8092780709266663,
                0.8092780709266663,
                0.8092780709266663
            ],
            "translation" : [
                0.14438824355602264,
                0,
                0
            ]
        }
    ],
    "materials" : [
        {
            "doubleSided" : true,
            "name" : "Material.002",
            "pbrMetallicRoughness" : {
                "baseColorFactor" : [
                    0.8000000715255737,
                    0.5156586170196533,
                    0.005681909620761871,
                    1
                ],
                "metallicFactor" : 0,
                "roughnessFactor" : 0.5
            }
        },
        {
            "doubleSided" : true,
            "name" : "Material.001",
            "pbrMetallicRoughness" : {
                "baseColorFactor" : [
                    0.014705101028084755,
                    0.27383074164390564,
                    0.04146825522184372,
                    1
                ],
                "metallicFactor" : 0,
                "roughnessFactor" : 0.5
            }
        }
    ],
    "meshes" : [
        {
            "name" : "Cube.001",
            "primitives" : [
                {
                    "attributes" : {
                        "POSITION" : 0,
                        "NORMAL" : 1,
                        "TEXCOORD_0" : 2
                    },
                    "indices" : 3,
                    "material" : 0
                },
                {
                    "attributes" : {
                        "POSITION" : 4,
                        "NORMAL" : 5,
                        "TEXCOORD_0" : 6
                    },
                    "indices" : 7,
                    "material" : 1
                }
            ]
        }
    ],
    "accessors" : [
        {
            "bufferView" : 0,
            "componentType" : 5126,
            "count" : 1727,
            "max" : [
                0.3554759919643402,
                0.10927890986204147,
                0.7686144709587097
            ],
            "min" : [
                -0.3554759919643402,
                -0.5075908303260803,
                -0.7533655166625977
            ],
            "type" : "VEC3"
        },
        {
            "bufferView" : 1,
            "componentType" : 5126,
            "count" : 1727,
            "type" : "VEC3"
        },
        {
            "bufferView" : 2,
            "componentType" : 5126,
            "count" : 1727,
            "type" : "VEC2"
        },
        {
            "bufferView" : 3,
            "componentType" : 5123,
            "count" : 2976,
            "type" : "SCALAR"
        },
        {
            "bufferView" : 4,
            "componentType" : 5126,
            "count" : 8096,
            "max" : [
                1.2356692552566528,
                0.17311929166316986,
                1.2356692552566528
            ],
            "min" : [
                -1.2356692552566528,
                -0.5299514532089233,
                -1.2356692552566528
            ],
            "type" : "VEC3"
        },
        {
            "bufferView" : 5,
            "componentType" : 5126,
            "count" : 8096,
            "type" : "VEC3"
        },
        {
            "bufferView" : 6,
            "componentType" : 5126,
            "count" : 8096,
            "type" : "VEC2"
        },
        {
            "bufferView" : 7,
            "componentType" : 5123,
            "count" : 8424,
            "type" : "SCALAR"
        }
    ],
    "bufferViews" : [
        {
            "buffer" : 0,
            "byteLength" : 20724,
            "byteOffset" : 0
        },
        {
            "buffer" : 0,
            "byteLength" : 20724,
            "byteOffset" : 20724
        },
        {
            "buffer" : 0,
            "byteLength" : 13816,
            "byteOffset" : 41448
        },
        {
            "buffer" : 0,
            "byteLength" : 5952,
            "byteOffset" : 55264
        },
        {
            "buffer" : 0,
            "byteLength" : 97152,
            "byteOffset" : 61216
        },
        {
            "buffer" : 0,
            "byteLength" : 97152,
            "byteOffset" : 158368
        },
        {
            "buffer" : 0,
            "byteLength" : 64768,
            "byteOffset" : 255520
        },
        {
            "buffer" : 0,
            "byteLength" : 16848,
            "byteOffset" : 320288
        }
    ],
    "buffers" : [
        {
            "byteLength" : 337136,
            "uri" : "data:application/octet-stream;base64,"
        }
    ]
}
