{
    "asset" : {
        "generator" : "Khronos glTF Blender I/O v3.2.43",
        "version" : "2.0"
    },
    "scene" : 0,
    "scenes" : [
        {
            "name" : "Scene",
            "nodes" : [
                0
            ]
        }
    ],
    "nodes" : [
        {
            "mesh" : 0,
            "name" : "Cube.001",
            "rotation" : [
                -1,
                0,
                0,
                1.6292068494294654e-07
            ],
            "scale" : [
                0.2911841571331024,
                0.2911841571331024,
                0.2911841571331024
            ]
        }
    ],
    "materials" : [
        {
            "doubleSided" : true,
            "name" : "Material.002",
            "pbrMetallicRoughness" : {
                "baseColorFactor" : [
                    0.23303063213825226,
                    0.11631722748279572,
                    1,
                    1
                ],
                "metallicFactor" : 0.7446808218955994,
                "roughnessFactor" : 0.11702126264572144
            }
        },
        {
            "doubleSided" : true,
            "name" : "Material.001",
            "pbrMetallicRoughness" : {
                "baseColorFactor" : [
                    0.39075756072998047,
                    0.08547909557819366,
                    0.6151770949363708,
                    1
                ],
                "metallicFactor" : 0,
                "roughnessFactor" : 0.5
            }
        }
    ],
    "meshes" : [
        {
            "name" : "Cube.002",
            "primitives" : [
                {
                    "attributes" : {
                        "POSITION" : 0,
                        "NORMAL" : 1,
                        "TEXCOORD_0" : 2
                    },
                    "indices" : 3,
                    "material" : 0
                },
                {
                    "attributes" : {
                        "POSITION" : 4,
                        "NORMAL" : 5,
                        "TEXCOORD_0" : 6
                    },
                    "indices" : 7,
                    "material" : 1
                }
            ]
        }
    ],
    "accessors" : [
        {
            "bufferView" : 0,
            "componentType" : 5126,
            "count" : 124,
            "max" : [
                1.187604308128357,
                2.2405459880828857,
                1.1280081272125244
            ],
            "min" : [
                -1.187604308128357,
                -2.2722649574279785,
                -1.1280089616775513
            ],
            "type" : "VEC3"
        },
        {
            "bufferView" : 1,
            "componentType" : 5126,
            "count" : 124,
            "type" : "VEC3"
        },
        {
            "bufferView" : 2,
            "componentType" : 5126,
            "count" : 124,
            "type" : "VEC2"
        },
        {
            "bufferView" : 3,
            "componentType" : 5123,
            "count" : 156,
            "type" : "SCALAR"
        },
        {
            "bufferView" : 4,
            "componentType" : 5126,
            "count" : 5376,
            "max" : [
                0.7770518064498901,
                3.434252977371216,
                3.4342527389526367
            ],
            "min" : [
                -0.7770518064498901,
                -3.4342525005340576,
                -3.4342527389526367
            ],
            "type" : "VEC3"
        },
        {
            "bufferView" : 5,
            "componentType" : 5126,
            "count" : 5376,
            "type" : "VEC3"
        },
        {
            "bufferView" : 6,
            "componentType" : 5126,
            "count" : 5376,
            "type" : "VEC2"
        },
        {
            "bufferView" : 7,
            "componentType" : 5123,
            "count" : 8424,
            "type" : "SCALAR"
        }
    ],
    "bufferViews" : [
        {
            "buffer" : 0,
            "byteLength" : 1488,
            "byteOffset" : 0
        },
        {
            "buffer" : 0,
            "byteLength" : 1488,
            "byteOffset" : 1488
        },
        {
            "buffer" : 0,
            "byteLength" : 992,
            "byteOffset" : 2976
        },
        {
            "buffer" : 0,
            "byteLength" : 312,
            "byteOffset" : 3968
        },
        {
            "buffer" : 0,
            "byteLength" : 64512,
            "byteOffset" : 4280
        },
        {
            "buffer" : 0,
            "byteLength" : 64512,
            "byteOffset" : 68792
        },
        {
            "buffer" : 0,
            "byteLength" : 43008,
            "byteOffset" : 133304
        },
        {
            "buffer" : 0,
            "byteLength" : 16848,
            "byteOffset" : 176312
        }
    ],
    "buffers" : [
        {
            "byteLength" : 193160,
            "uri" : "data:application/octet-stream;base64,"
        }
    ]
}
