{
    "asset" : {
        "generator" : "Khronos glTF Blender I/O v3.2.43",
        "version" : "2.0"
    },
    "scene" : 0,
    "scenes" : [
        {
            "name" : "Scene",
            "nodes" : [
                0
            ]
        }
    ],
    "nodes" : [
        {
            "mesh" : 0,
            "name" : "Text",
            "rotation" : [
                0,
                0.7071068286895752,
                0,
                0.7071068286895752
            ],
            "scale" : [
                0.960228443145752,
                0.960228443145752,
                0.960228443145752
            ],
            "translation" : [
                0.160380020737648,
                0.02614155411720276,
                0.01114906370639801
            ]
        }
    ],
    "materials" : [
        {
            "doubleSided" : true,
            "name" : "Material.002",
            "pbrMetallicRoughness" : {
                "metallicFactor" : 0,
                "roughnessFactor" : 0.5
            }
        },
        {
            "doubleSided" : true,
            "name" : "Material.001",
            "pbrMetallicRoughness" : {
                "baseColorFactor" : [
                    0.03904873877763748,
                    0.06116773933172226,
                    0.4385436773300171,
                    1
                ],
                "metallicFactor" : 0,
                "roughnessFactor" : 0.5
            }
        }
    ],
    "meshes" : [
        {
            "name" : "Text",
            "primitives" : [
                {
                    "attributes" : {
                        "POSITION" : 0,
                        "NORMAL" : 1,
                        "TEXCOORD_0" : 2
                    },
                    "indices" : 3,
                    "material" : 0
                },
                {
                    "attributes" : {
                        "POSITION" : 4,
                        "NORMAL" : 5,
                        "TEXCOORD_0" : 6
                    },
                    "indices" : 7,
                    "material" : 1
                }
            ]
        }
    ],
    "accessors" : [
        {
            "bufferView" : 0,
            "componentType" : 5126,
            "count" : 1550,
            "max" : [
                0.5685307383537292,
                0.5650408267974854,
                0.07499544322490692
            ],
            "min" : [
                -0.568530797958374,
                -0.5677587389945984,
                -0.4196791648864746
            ],
            "type" : "VEC3"
        },
        {
            "bufferView" : 1,
            "componentType" : 5126,
            "count" : 1550,
            "type" : "VEC3"
        },
        {
            "bufferView" : 2,
            "componentType" : 5126,
            "count" : 1550,
            "type" : "VEC2"
        },
        {
            "bufferView" : 3,
            "componentType" : 5123,
            "count" : 2472,
            "type" : "SCALAR"
        },
        {
            "bufferView" : 4,
            "componentType" : 5126,
            "count" : 8077,
            "max" : [
                1.0530297756195068,
                1.0141946077346802,
                0.12925034761428833
            ],
            "min" : [
                -1.0298080444335938,
                -1.0686432123184204,
                -0.4632958769798279
            ],
            "type" : "VEC3"
        },
        {
            "bufferView" : 5,
            "componentType" : 5126,
            "count" : 8077,
            "type" : "VEC3"
        },
        {
            "bufferView" : 6,
            "componentType" : 5126,
            "count" : 8077,
            "type" : "VEC2"
        },
        {
            "bufferView" : 7,
            "componentType" : 5123,
            "count" : 8424,
            "type" : "SCALAR"
        }
    ],
    "bufferViews" : [
        {
            "buffer" : 0,
            "byteLength" : 18600,
            "byteOffset" : 0
        },
        {
            "buffer" : 0,
            "byteLength" : 18600,
            "byteOffset" : 18600
        },
        {
            "buffer" : 0,
            "byteLength" : 12400,
            "byteOffset" : 37200
        },
        {
            "buffer" : 0,
            "byteLength" : 4944,
            "byteOffset" : 49600
        },
        {
            "buffer" : 0,
            "byteLength" : 96924,
            "byteOffset" : 54544
        },
        {
            "buffer" : 0,
            "byteLength" : 96924,
            "byteOffset" : 151468
        },
        {
            "buffer" : 0,
            "byteLength" : 64616,
            "byteOffset" : 248392
        },
        {
            "buffer" : 0,
            "byteLength" : 16848,
            "byteOffset" : 313008
        }
    ],
    "buffers" : [
        {
            "byteLength" : 329856,
            "uri" : "data:application/octet-stream;base64,"
        }
    ]
}
