{
    "asset" : {
        "generator" : "Khronos glTF Blender I/O v3.2.43",
        "version" : "2.0"
    },
    "scene" : 0,
    "scenes" : [
        {
            "name" : "Scene",
            "nodes" : [
                0
            ]
        }
    ],
    "nodes" : [
        {
            "mesh" : 0,
            "name" : "Cylinder",
            "rotation" : [
                0,
                0,
                -0.7071067094802856,
                0.7071068286895752
            ],
            "scale" : [
                1,
                0.07910116761922836,
                1
            ]
        }
    ],
    "materials" : [
        {
            "doubleSided" : true,
            "name" : "Material.001",
            "pbrMetallicRoughness" : {
                "baseColorFactor" : [
                    0.8275707960128784,
                    1,
                    1,
                    1
                ],
                "metallicFactor" : 0.4893617033958435,
                "roughnessFactor" : 0.44680851697921753
            }
        }
    ],
    "meshes" : [
        {
            "name" : "Cylinder",
            "primitives" : [
                {
                    "attributes" : {
                        "POSITION" : 0,
                        "NORMAL" : 1,
                        "TEXCOORD_0" : 2
                    },
                    "indices" : 3,
                    "material" : 0
                }
            ]
        }
    ],
    "accessors" : [
        {
            "bufferView" : 0,
            "componentType" : 5126,
            "count" : 22677,
            "max" : [
                0.9941200613975525,
                1.0192301273345947,
                0.9941200613975525
            ],
            "min" : [
                -0.9941200613975525,
                -0.9685747623443604,
                -0.9941200613975525
            ],
            "type" : "VEC3"
        },
        {
            "bufferView" : 1,
            "componentType" : 5126,
            "count" : 22677,
            "type" : "VEC3"
        },
        {
            "bufferView" : 2,
            "componentType" : 5126,
            "count" : 22677,
            "type" : "VEC2"
        },
        {
            "bufferView" : 3,
            "componentType" : 5123,
            "count" : 34392,
            "type" : "SCALAR"
        }
    ],
    "bufferViews" : [
        {
            "buffer" : 0,
            "byteLength" : 272124,
            "byteOffset" : 0
        },
        {
            "buffer" : 0,
            "byteLength" : 272124,
            "byteOffset" : 272124
        },
        {
            "buffer" : 0,
            "byteLength" : 181416,
            "byteOffset" : 544248
        },
        {
            "buffer" : 0,
            "byteLength" : 68784,
            "byteOffset" : 725664
        }
    ],
    "buffers" : [
        {
            "byteLength" : 794448,
            "uri" : "data:application/octet-stream;base64,"
        }
    ]
}
